<svg xmlns="http://www.w3.org/2000/svg">
  <symbol id="instagram-btn" width="44" height="44" viewBox="0 0 44 44">
    <path d="M44 22C44 28.0751 41.5376 33.5751 37.5564 37.5564C33.5751 41.5376 28.0751 44 22 44C15.9249 44 10.4249 41.5376 6.44365 37.5564C2.46243 33.5751 0 28.0751 0 22C0 15.9249 2.46243 10.4249 6.44365 6.44365C10.4249 2.46243 15.9249 0 22 0C28.0751 0 33.5751 2.46243 37.5564 6.44365C41.5376 10.4249 44 15.9249 44 22Z"/>
    <path d="M31.9804 17.8801C31.9336 16.8174 31.7617 16.0868 31.5156 15.4537C31.2616 14.7818 30.8709 14.1801 30.359 13.68C29.8589 13.1721 29.2533 12.7774 28.5891 12.5274C27.9524 12.2813 27.2256 12.1094 26.163 12.0626C25.0924 12.0118 24.7525 12 22.0371 12C19.3217 12 18.9818 12.0118 17.9152 12.0586C16.8525 12.1055 16.1219 12.2775 15.489 12.5235C14.8169 12.7774 14.2153 13.1681 13.7152 13.68C13.2073 14.1801 12.8127 14.7857 12.5626 15.4499C12.3164 16.0868 12.1446 16.8134 12.0977 17.8761C12.0469 18.9467 12.0352 19.2866 12.0352 22.002C12.0352 24.7173 12.0469 25.0572 12.0938 26.1239C12.1406 27.1865 12.3126 27.9171 12.5588 28.5502C12.8127 29.2221 13.2073 29.8238 13.7152 30.3239C14.2153 30.8318 14.8209 31.2265 15.4851 31.4765C16.1219 31.7226 16.8486 31.8945 17.9114 31.9413C18.9779 31.9883 19.3179 31.9999 22.0333 31.9999C24.7487 31.9999 25.0885 31.9883 26.1552 31.9413C27.2179 31.8945 27.9484 31.7226 28.5813 31.4765C29.9254 30.9568 30.9881 29.8941 31.5078 28.5502C31.7538 27.9133 31.9258 27.1865 31.9727 26.1239C32.0195 25.0572 32.0313 24.7173 32.0313 22.002C32.0313 19.2866 32.0273 18.9467 31.9804 17.8801ZM30.1794 26.0457C30.1364 27.0225 29.9723 27.5499 29.8356 27.9015C29.4995 28.7728 28.808 29.4643 27.9367 29.8004C27.5851 29.9372 27.0538 30.1012 26.0809 30.1441C25.026 30.1911 24.7096 30.2027 22.0411 30.2027C19.3726 30.2027 19.0522 30.1911 18.0011 30.1441C17.0244 30.1012 16.4969 29.9372 16.1453 29.8004C15.7117 29.6402 15.317 29.3862 14.9967 29.0541C14.6646 28.7298 14.4106 28.3391 14.2504 27.9055C14.1137 27.5539 13.9496 27.0225 13.9067 26.0497C13.8597 24.9948 13.8481 24.6783 13.8481 22.0097C13.8481 19.3412 13.8597 19.0209 13.9067 17.9699C13.9496 16.9932 14.1137 16.4657 14.2504 16.1141C14.4106 15.6804 14.6646 15.2859 15.0007 14.9654C15.3248 14.6333 15.7155 14.3793 16.1493 14.2192C16.5009 14.0825 17.0323 13.9184 18.0051 13.8754C19.06 13.8285 19.3765 13.8168 22.0449 13.8168C24.7174 13.8168 25.0337 13.8285 26.0848 13.8754C27.0616 13.9184 27.589 14.0825 27.9407 14.2192C28.3742 14.3793 28.7689 14.6333 29.0893 14.9654C29.4213 15.2897 29.6753 15.6804 29.8356 16.1141C29.9723 16.4657 30.1364 16.997 30.1794 17.9699C30.2263 19.0248 30.238 19.3412 30.238 22.0097C30.238 24.6783 30.2263 24.9908 30.1794 26.0457Z" fill="currentColor"/>
    <path d="M22.0371 16.8642C19.2007 16.8642 16.8994 19.1654 16.8994 22.0019C16.8994 24.8385 19.2007 27.1396 22.0371 27.1396C24.8737 27.1396 27.1749 24.8385 27.1749 22.0019C27.1749 19.1654 24.8737 16.8642 22.0371 16.8642ZM22.0371 25.3346C20.197 25.3346 18.7044 23.8422 18.7044 22.0019C18.7044 20.1617 20.197 18.6692 22.0371 18.6692C23.8774 18.6692 25.3698 20.1617 25.3698 22.0019C25.3698 23.8422 23.8774 25.3346 22.0371 25.3346Z" fill="currentColor"/>
    <path d="M28.5775 16.6611C28.5775 17.3235 28.0404 17.8605 27.3779 17.8605C26.7155 17.8605 26.1785 17.3235 26.1785 16.6611C26.1785 15.9986 26.7155 15.4617 27.3779 15.4617C28.0404 15.4617 28.5775 15.9986 28.5775 16.6611Z" fill="currentColor"/>
  </symbol>
  <symbol id="twitter-btn" width="44" height="44" viewBox="0 0 44 44">
    <path d="M44 22C44 28.0751 41.5376 33.5751 37.5564 37.5564C33.5751 41.5376 28.0751 44 22 44C15.9249 44 10.4249 41.5376 6.44365 37.5564C2.46243 33.5751 0 28.0751 0 22C0 15.9249 2.46243 10.4249 6.44365 6.44365C10.4249 2.46243 15.9249 0 22 0C28.0751 0 33.5751 2.46243 37.5564 6.44365C41.5376 10.4249 44 15.9249 44 22Z"/>
    <path d="M32 15.7988C31.2563 16.125 30.4637 16.3412 29.6375 16.4462C30.4875 15.9388 31.1363 15.1412 31.4412 14.18C30.6488 14.6525 29.7738 14.9863 28.8412 15.1725C28.0887 14.3713 27.0162 13.875 25.8462 13.875C23.5763 13.875 21.7487 15.7175 21.7487 17.9763C21.7487 18.3012 21.7762 18.6137 21.8438 18.9112C18.435 18.745 15.4188 17.1113 13.3925 14.6225C13.0387 15.2363 12.8313 15.9388 12.8313 16.695C12.8313 18.115 13.5625 19.3737 14.6525 20.1025C13.9937 20.09 13.3475 19.8988 12.8 19.5975C12.8 19.61 12.8 19.6262 12.8 19.6425C12.8 21.635 14.2212 23.29 16.085 23.6712C15.7512 23.7625 15.3875 23.8062 15.01 23.8062C14.7475 23.8062 14.4825 23.7913 14.2337 23.7362C14.765 25.36 16.2725 26.5538 18.065 26.5925C16.67 27.6838 14.8988 28.3412 12.9813 28.3412C12.645 28.3412 12.3225 28.3263 12 28.285C13.8162 29.4563 15.9688 30.125 18.29 30.125C25.835 30.125 29.96 23.875 29.96 18.4575C29.96 18.2762 29.9538 18.1013 29.945 17.9275C30.7588 17.35 31.4425 16.6288 32 15.7988Z" fill="currentColor"/>
  </symbol>
  <symbol id="facebook-btn" width="44" height="44" viewBox="0 0 44 44">
    <path d="M44 22C44 28.0751 41.5376 33.5751 37.5564 37.5564C33.5751 41.5376 28.0751 44 22 44C15.9249 44 10.4249 41.5376 6.44365 37.5564C2.46243 33.5751 0 28.0751 0 22C0 15.9249 2.46243 10.4249 6.44365 6.44365C10.4249 2.46243 15.9249 0 22 0C28.0751 0 33.5751 2.46243 37.5564 6.44365C41.5376 10.4249 44 15.9249 44 22Z"/>
    <path d="M25.3309 15.3208H27.1567V12.1408C26.8417 12.0975 25.7584 12 24.4967 12C21.8642 12 20.0609 13.6558 20.0609 16.6992V19.5H17.1559V23.055H20.0609V32H23.6226V23.0558H26.4101L26.8526 19.5008H23.6217V17.0517C23.6226 16.0242 23.8992 15.3208 25.3309 15.3208Z" fill="currentColor"/>
  </symbol>
  <symbol id="linkedin-btn" width="44" height="44" viewBox="0 0 44 44">
    <path d="M44 22C44 28.0751 41.5376 33.5751 37.5564 37.5564C33.5751 41.5376 28.0751 44 22 44C15.9249 44 10.4249 41.5376 6.44365 37.5564C2.46243 33.5751 0 28.0751 0 22C0 15.9249 2.46243 10.4249 6.44365 6.44365C10.4249 2.46243 15.9249 0 22 0C28.0751 0 33.5751 2.46243 37.5564 6.44365C41.5376 10.4249 44 15.9249 44 22Z"/>
    <path d="M31.9951 32V31.9992H32.0001V24.6642C32.0001 21.0759 31.2276 18.3117 27.0326 18.3117C25.0159 18.3117 23.6626 19.4184 23.1101 20.4675H23.0517V18.6467H19.0742V31.9992H23.2159V25.3875C23.2159 23.6467 23.5459 21.9634 25.7017 21.9634C27.8259 21.9634 27.8576 23.95 27.8576 25.4992V32H31.9951Z" fill="currentColor"/>
    <path d="M12.33 18.6475H16.4766V32H12.33V18.6475Z" fill="currentColor"/>
    <path d="M14.4017 12C13.0758 12 12 13.0758 12 14.4017C12 15.7275 13.0758 16.8258 14.4017 16.8258C15.7275 16.8258 16.8033 15.7275 16.8033 14.4017C16.8025 13.0758 15.7267 12 14.4017 12V12Z" fill="currentColor"/>
  </symbol>

  <symbol id="smartphone" width="10" height="16" viewBox="0 0 10 16">
    <path d="M8.5 0H1.5C0.672848 0 0 0.672848 0 1.5V14.5C0 15.3272 0.672848 16 1.5 16H8.5C9.32715 16 10 15.3272 10 14.5V1.5C10 0.672848 9.32715 0 8.5 0ZM1.5 1H8.5C8.77588 1 9 1.22412 9 1.5V12H1V1.5C1 1.22412 1.22412 1 1.5 1ZM8.5 15H1.5C1.22412 15 1 14.7759 1 14.5V13H9V14.5C9 14.7759 8.77588 15 8.5 15Z" fill="currentColor"/>
    <path d="M2.35355 13.7389C2.54882 13.9213 2.54882 14.2169 2.35355 14.3992C2.15828 14.5816 1.84172 14.5816 1.64645 14.3992C1.45118 14.2169 1.45118 13.9213 1.64645 13.7389C1.84172 13.5566 2.15828 13.5566 2.35355 13.7389Z" fill="currentColor"/>
  </symbol>
  <symbol id="envelope" width="16" height="12" viewBox="0 0 16 12">
    <path d="M14.5 0H1.50001C0.672854 0 0 0.672853 0 1.50001V10.5C0 11.3271 0.672854 12 1.50001 12H14.5C15.3271 12 16 11.3271 16 10.5V1.50001C16 0.672853 15.3271 0 14.5 0ZM14.5 0.999994C14.5679 0.999994 14.6325 1.01409 14.6916 1.0387L8 6.83838L1.30833 1.0387C1.36742 1.01412 1.43204 0.999994 1.49998 0.999994H14.5ZM14.5 11H1.50001C1.22414 11 0.999996 10.7759 0.999996 10.5V2.09521L7.67236 7.87792C7.76661 7.95944 7.8833 7.99999 8 7.99999C8.1167 7.99999 8.23339 7.95948 8.32764 7.87792L15 2.09521V10.5C15 10.7759 14.7759 11 14.5 11Z" fill="currentColor"/>
  </symbol>
  
  <symbol id="antenna" width="70" height="70" viewBox="0 0 70 70">
    <path d="M67.3163 48.3385L48.8468 29.7337L50.8966 19.6373C51.4256 19.8438 51.9879 19.9517 52.5556 19.9558H52.5696C55.1777 19.9866 57.3169 17.8974 57.3479 15.2893C57.3788 12.6812 55.2894 10.542 52.6813 10.5111C50.0732 10.4803 47.934 12.5695 47.9031 15.1776C47.8965 15.7357 47.9888 16.2905 48.176 16.8163L37.326 18.1405L19.6276 0.35C19.4105 0.128479 19.1141 0.00247917 18.804 0C18.4977 0.00160417 18.2044 0.123521 17.9873 0.3395L14.6786 3.6295C14.2232 4.08508 14.2232 4.82358 14.6786 5.27917L16.459 7.08517C9.56162 19.7681 11.8019 35.4741 21.9703 45.7228C22.0636 45.8121 22.1718 45.8843 22.29 45.9363C22.2165 46.3311 22.1781 46.7317 22.1756 47.1333V60.6667H8.17562C4.95562 60.6705 2.34608 63.28 2.34229 66.5V68.8333C2.34229 69.4776 2.86466 70 3.50895 70H57.1756C57.8199 70 58.3423 69.4776 58.3423 68.8333V66.5C58.3385 63.28 55.729 60.6705 52.509 60.6667H38.509V54.6688C40.7021 55.1288 42.9367 55.3633 45.1776 55.3688C50.5548 55.363 55.8464 54.0225 60.5776 51.4675L62.3673 53.2677C62.5844 53.4892 62.8808 53.6152 63.191 53.6177C63.4972 53.6161 63.7905 53.4941 64.0076 53.2782L67.3163 49.9882C67.7717 49.5326 67.7717 48.7941 67.3163 48.3385ZM50.9246 13.6348C51.8383 12.726 53.3157 12.7301 54.2244 13.6437C55.1332 14.5574 55.1291 16.0348 54.2155 16.9435C53.7781 17.3785 53.1864 17.6226 52.5695 17.6225H52.5625C51.2739 17.6158 50.2345 16.5658 50.2412 15.2771C50.2445 14.6602 50.4918 14.0699 50.9291 13.6348H50.9246ZM48.1783 21.301L46.8693 27.7445L44.298 25.158L48.1783 21.301ZM46.853 19.3282L42.653 23.5037L39.4038 20.237L46.853 19.3282ZM52.509 63C54.442 63 56.009 64.567 56.009 66.5V67.6667H4.67562V66.5C4.67562 64.567 6.2426 63 8.17562 63H52.509ZM36.1756 58.3333V60.6667H24.509V58.3333H36.1756ZM24.509 56V47.1333C24.509 44.303 27.1258 42 30.3423 42C33.5588 42 36.1756 44.303 36.1756 47.1333V56H24.509ZM38.509 52.29V47.1333C38.509 43.0162 34.8456 39.6667 30.3423 39.6667C27.4306 39.622 24.7079 41.1041 23.165 43.5738C14.2887 34.2249 12.2899 20.2875 18.1805 8.82073L58.872 49.7455C52.5886 52.9419 45.3857 53.8418 38.509 52.29ZM63.2038 50.7943L61.56 49.1412L18.7923 6.11567L17.1415 4.46133L18.7923 2.81633L36.15 20.272C36.1581 20.272 36.1628 20.2872 36.171 20.293L64.8593 49.1493L63.2038 50.7943Z" fill="currentColor"/>
    <path d="M30.3528 44.3333H30.3423C28.4093 44.3304 26.84 45.895 26.837 47.8281C26.8341 49.7611 28.3988 51.3304 30.3318 51.3333H30.3423C32.2753 51.3362 33.8446 49.7716 33.8475 47.8386C33.8505 45.9055 32.2858 44.3362 30.3528 44.3333ZM31.1695 48.6605C30.9498 48.8789 30.6522 49.0012 30.3423 49C29.698 48.9966 29.1784 48.4716 29.1817 47.8273C29.1834 47.5189 29.307 47.2237 29.5256 47.0062C29.7428 46.7902 30.036 46.6683 30.3423 46.6667C30.9866 46.67 31.5062 47.195 31.5028 47.8393C31.5012 48.1477 31.3776 48.4429 31.159 48.6605H31.1695Z"/>
  </symbol>
  <symbol id="clock" width="70" height="70" viewBox="0 0 70 70">
    <path d="M68.4614 33.4715C68.4576 14.9819 53.4656 -0.00373771 34.9754 6.99302e-07C16.4858 0.00373911 1.50017 14.9963 1.50391 33.4859C1.50711 48.0502 10.9252 60.9413 24.7995 65.3713C24.9319 65.413 25.0697 65.4343 25.2081 65.4338C25.4719 65.4333 25.7304 65.3628 25.9573 65.2287C26.2527 65.0541 26.4732 64.7764 26.5768 64.449L35.0315 37.6521C37.3429 37.6404 39.2068 35.7568 39.1945 33.4459C39.1827 31.1345 37.2997 29.2706 34.9883 29.2824C34.3666 29.285 33.753 29.4282 33.1944 29.7011L22.0251 18.5302C21.4707 17.9951 20.5879 18.0106 20.0528 18.5644C19.5305 19.1054 19.5305 19.962 20.0528 20.503L31.2162 31.6792C30.3596 33.4277 30.8493 35.5383 32.3895 36.7303L24.3338 62.2647C8.41354 56.4002 0.261689 38.7405 6.12618 22.8203C11.9907 6.90002 29.6503 -1.25183 45.5706 4.61266C61.4909 10.4771 69.6427 28.1374 63.7782 44.0571C60.913 51.8351 55.0261 58.1252 47.4548 61.4989L46.5842 57.3989C46.4251 56.6454 45.6844 56.1636 44.9308 56.3233C44.6931 56.3741 44.4726 56.4857 44.291 56.6475L35.8978 64.1409C35.322 64.653 35.2708 65.5347 35.7835 66.1105C35.9501 66.2974 36.1637 66.4362 36.403 66.5126L47.1188 69.9327C47.8521 70.1682 48.6377 69.765 48.8732 69.0312C48.948 68.7994 48.9603 68.5527 48.9101 68.3145L48.0545 64.2915C60.4452 59.0678 68.4902 46.918 68.4614 33.4715ZM34.9829 32.0766C35.753 32.0766 36.3779 32.7014 36.3779 33.4715C36.3779 34.2422 35.753 34.8665 34.9829 34.8665C34.2123 34.8665 33.588 34.2422 33.588 33.4715C33.588 32.7014 34.2123 32.0766 34.9829 32.0766ZM39.5774 64.5916L44.3551 60.3298L45.6737 66.543L39.5774 64.5916Z" fill="currentColor"/>
    <path d="M33.5879 6.96729V9.7572C33.5879 10.5278 34.2122 11.1522 34.9828 11.1522C35.753 11.1522 36.3778 10.5278 36.3778 9.7572V6.96729C36.3778 6.19717 35.753 5.57233 34.9828 5.57233C34.2122 5.57233 33.5879 6.19717 33.5879 6.96729Z"/>
    <path d="M8.4787 32.0765C7.70805 32.0765 7.08374 32.7014 7.08374 33.4715C7.08374 34.2421 7.70805 34.8665 8.4787 34.8665H11.2686C12.0393 34.8665 12.6636 34.2421 12.6636 33.4715C12.6636 32.7014 12.0393 32.0765 11.2686 32.0765H8.4787Z"/>
    <path d="M61.4866 34.8665C62.2572 34.8665 62.8815 34.2421 62.8815 33.4715C62.8815 32.7014 62.2572 32.0765 61.4866 32.0765H58.6967C57.9265 32.0765 57.3017 32.7014 57.3017 33.4715C57.3017 34.2421 57.9265 34.8665 58.6967 34.8665H61.4866Z"/>
  </symbol>
  <symbol id="diagram" width="70" height="70" viewBox="0 0 70 70">
    <path d="M32.6496 32.7351H34.9817V43.2296H32.6496V32.7351Z"/>
    <path d="M41.978 37.3993H44.3101V43.2296H41.978V37.3993Z"/>
    <path d="M23.3211 40.8975H25.6532V43.2296H23.3211V40.8975Z"/>
    <path d="M16.3248 39.7314H18.6569V43.2295H16.3248V39.7314Z"/>
    <path d="M3.49817 61.8865H59.4689C61.4007 61.8865 62.967 60.3202 62.967 58.3883V53.7241C62.967 51.7923 61.4007 50.2259 59.4689 50.2259H58.3028V21.1469L64.9262 14.8725C66.4635 15.6303 68.3242 15.1702 69.3302 13.7816C70.3369 12.3935 70.1957 10.4821 68.9966 9.25684C67.7975 8.03157 65.8901 7.8488 64.4798 8.82412C63.0701 9.80001 62.569 11.6499 63.2933 13.2037L58.3028 17.9345V15.2443C58.3028 13.3124 56.7365 11.7461 54.8046 11.7461H8.16239C6.23054 11.7461 4.66422 13.3124 4.66422 15.2443V50.2259H3.49817C1.56632 50.2259 0 51.7923 0 53.7241V58.3883C0 60.3202 1.56632 61.8865 3.49817 61.8865ZM66.4652 10.58C67.1091 10.58 67.6312 11.1021 67.6312 11.7461C67.6312 12.39 67.1091 12.9121 66.4652 12.9121C65.8212 12.9121 65.2991 12.39 65.2991 11.7461C65.2991 11.1021 65.8212 10.58 66.4652 10.58ZM6.99634 15.2443C6.99634 14.6003 7.51844 14.0782 8.16239 14.0782H54.8046C55.4486 14.0782 55.9707 14.6003 55.9707 15.2443V20.1414L53.6386 22.3573V17.5764C53.6386 16.9324 53.1165 16.4103 52.4725 16.4103H10.4945C9.85055 16.4103 9.32845 16.9324 9.32845 17.5764V46.7278C9.32845 47.3717 9.85055 47.8938 10.4945 47.8938H52.4725C53.1165 47.8938 53.6386 47.3717 53.6386 46.7278V25.5651L55.9707 23.3554V50.2259H6.99634V15.2443ZM17.4908 30.403C15.9131 30.3984 14.5279 31.4495 14.1083 32.9703C13.6886 34.491 14.3383 36.104 15.6951 36.9091C17.0513 37.7142 18.7793 37.5121 19.9129 36.4149L23.9662 38.4487C24.4371 38.6844 25.0081 38.5739 25.3583 38.1805L33.9745 28.4871L42.4443 34.8338C42.8987 35.1743 43.5329 35.1378 43.9452 34.7478L51.3065 27.7748V45.5617H11.6606V18.7424H51.3065V24.5619L43.0564 32.3747L34.5154 25.9716C34.0303 25.6084 33.3476 25.6767 32.9445 26.1294L24.2099 35.9571L20.9446 34.3242C20.9685 34.1841 20.9833 34.0429 20.989 33.9012C20.989 31.9693 19.4227 30.403 17.4908 30.403ZM18.6569 33.9012C18.6569 34.5451 18.1348 35.0672 17.4908 35.0672C16.8469 35.0672 16.3248 34.5451 16.3248 33.9012C16.3248 33.2572 16.8469 32.7351 17.4908 32.7351C18.1348 32.7351 18.6569 33.2572 18.6569 33.9012ZM25.6532 52.5581H37.3138V53.7241C37.3138 54.3681 36.7917 54.8902 36.1477 54.8902H26.8193C26.1753 54.8902 25.6532 54.3681 25.6532 53.7241V52.5581ZM2.33211 53.7241C2.33211 53.0802 2.85422 52.5581 3.49817 52.5581H23.3211V53.7241C23.3211 55.656 24.8874 57.2223 26.8193 57.2223H36.1477C38.0796 57.2223 39.6459 55.656 39.6459 53.7241V52.5581H59.4689C60.1128 52.5581 60.6349 53.0802 60.6349 53.7241V58.3883C60.6349 59.0323 60.1128 59.5544 59.4689 59.5544H3.49817C2.85422 59.5544 2.33211 59.0323 2.33211 58.3883V53.7241Z" fill="currentColor"/>
  </symbol>
  <symbol id="astronaut" width="70" height="70" viewBox="0 0 70 70">
    <path d="M69.9433 9.89637C69.8056 9.47513 69.4416 9.16724 69.0018 9.10298L64.8228 8.49512L62.9526 4.70809C62.5606 3.91005 61.2527 3.91005 60.8608 4.70809L58.9906 8.49512L54.8114 9.10312C54.3716 9.16724 54.0076 9.47418 53.8687 9.89651C53.7323 10.3188 53.8453 10.7831 54.1639 11.0924L57.1891 14.0407L56.4752 18.2034C56.4005 18.6409 56.5802 19.0831 56.9384 19.3445C57.3012 19.6082 57.7748 19.6407 58.168 19.4331L61.9061 17.4672L65.6442 19.4331C65.8146 19.5229 66.0024 19.5672 66.1879 19.5672C66.4294 19.5672 66.671 19.4925 66.874 19.3443C67.2333 19.0831 67.413 18.6408 67.3372 18.2033L66.6233 14.0405L69.6485 11.0923C69.9654 10.7819 70.0798 10.3187 69.9433 9.89637ZM64.5556 12.7991C64.2815 13.0662 64.1555 13.4536 64.2208 13.8316L64.6385 16.2688L62.4499 15.1184C62.2795 15.0286 62.0929 14.9843 61.9061 14.9843C61.7195 14.9843 61.534 15.0286 61.3624 15.1184L59.1736 16.2688L59.5913 13.8316C59.6567 13.4536 59.5306 13.0675 59.2565 12.7991L57.4843 11.0724L59.932 10.7166C60.3124 10.6617 60.6402 10.4226 60.8106 10.0783L61.9049 7.86169L62.9992 10.0783C63.1696 10.4225 63.4974 10.6617 63.8778 10.7166L66.3255 11.0724L64.5556 12.7991Z"/>
    <path d="M57.167 44.8923H54.8336V47.2257H57.167V44.8923Z"/>
    <path d="M57.167 49.5591H54.8336V51.8925H57.167V49.5591Z"/>
    <path d="M59.5004 47.2257H57.167V49.5591H59.5004V47.2257Z"/>
    <path d="M54.8337 47.2257H52.5003V49.5591H54.8337V47.2257Z"/>
    <path d="M49.0002 57.7259H46.6668V60.0593H49.0002V57.7259Z"/>
    <path d="M49.0002 62.3926H46.6668V64.726H49.0002V62.3926Z"/>
    <path d="M51.3337 60.0593H49.0002V62.3927H51.3337V60.0593Z"/>
    <path d="M46.6668 60.0593H44.3334V62.3927H46.6668V60.0593Z"/>
    <path d="M35 53.0592H32.6666V55.3926H35V53.0592Z"/>
    <path d="M35 57.7259H32.6666V60.0593H35V57.7259Z"/>
    <path d="M37.3334 55.3925H35V57.7259H37.3334V55.3925Z"/>
    <path d="M32.6666 55.3925H30.3332V57.7259H32.6666V55.3925Z"/>
    <path d="M12.833 13.3918H10.4996V15.7252H12.833V13.3918Z"/>
    <path d="M12.833 18.0587H10.4996V20.3921H12.833V18.0587Z"/>
    <path d="M15.1663 15.7252H12.8329V18.0586H15.1663V15.7252Z"/>
    <path d="M10.4996 15.7252H8.1662V18.0586H10.4996V15.7252Z"/>
    <path d="M54.0635 30.9738C53.4348 30.1256 52.5119 29.5797 51.4642 29.4326C50.4119 29.2833 49.3735 29.5597 48.5335 30.2026L45.7952 32.3014L45.794 32.3026L41.6429 35.4025L38.6725 34.2194C43.9692 31.8429 47.6712 26.545 47.6712 20.3942C47.6712 12.0314 40.8402 5.22736 32.4436 5.22736C24.047 5.22736 17.2162 12.0314 17.2162 20.3942C17.2162 23.4253 18.1226 26.2439 19.6662 28.6158L13.6204 28.5633C13.6169 28.5633 13.6134 28.5633 13.6099 28.5633C13.5912 28.5633 13.5761 28.5726 13.5586 28.5738C13.4431 28.5785 13.3299 28.6018 13.2191 28.6415C13.1911 28.652 13.162 28.6579 13.1352 28.6706C13.1212 28.6765 13.1072 28.6776 13.0932 28.6846L6.02078 32.1764C6.01955 32.1764 6.01846 32.1764 6.01846 32.1775L1.87663 34.1693C1.8311 34.1891 1.78448 34.2159 1.73895 34.2462C0.0880496 35.3452 -0.474284 37.5036 0.429989 39.2676C0.911793 40.2056 1.73198 40.8963 2.74003 41.2124C3.12859 41.3337 3.52521 41.3933 3.91952 41.3933C4.55308 41.3933 5.18077 41.2381 5.75582 40.9313L8.79157 39.3167L13.7441 36.7593L16.7122 36.7418L4.80848 48.5884C4.80738 48.5896 4.80615 48.5896 4.80492 48.5907L1.8765 51.5074C1.18469 52.1958 0.80433 53.1092 0.80433 54.0835C0.80433 55.0565 1.18469 55.9723 1.8765 56.6619C2.58703 57.3689 3.52152 57.7235 4.45601 57.7235C5.39173 57.7235 6.32498 57.3689 7.03785 56.6619L9.91254 53.7988L13.7206 50.9556L15.6912 52.9179L11.8376 56.7551C11.8365 56.7564 11.8352 56.7564 11.834 56.7575L8.90559 59.6741C8.21378 60.3625 7.83343 61.2759 7.83343 62.2502C7.83343 63.2233 8.21378 64.139 8.90559 64.8286C9.61613 65.5356 10.5518 65.8903 11.4863 65.8903C12.4208 65.8903 13.3565 65.5356 14.0682 64.8286L16.9977 61.912L21.6842 57.2453C21.6854 57.244 21.6854 57.2429 21.6865 57.2417L23.8951 55.0542L23.8869 55.046C23.9009 55.032 23.9207 55.0272 23.9348 55.0122L35.2353 42.6349L42.8281 43.7152C42.8829 43.7234 42.9377 43.7269 42.9926 43.7269C43.1338 43.7269 43.2703 43.6931 43.4021 43.6429C43.4406 43.629 43.4744 43.6102 43.5106 43.5916C43.5526 43.5706 43.5969 43.559 43.6367 43.5322L50.6659 38.8655C50.6916 38.848 50.7056 38.8199 50.73 38.8013C50.758 38.7792 50.7931 38.7699 50.8186 38.7453L53.5999 36.1401C55.0471 34.7841 55.2466 32.5628 54.0635 30.9738ZM4.66027 38.8722C4.28114 39.0752 3.85061 39.1159 3.43881 38.9854C3.03042 38.8582 2.69915 38.5793 2.50541 38.2025C2.15308 37.5164 2.35721 36.6811 2.97436 36.2296L5.84796 34.8471L6.53977 36.8689L6.8303 37.7182L4.66027 38.8722ZM12.3102 34.874L8.92336 36.6241L8.36459 34.9907L7.96331 33.8169L12.3968 31.6282L12.3102 34.874ZM45.3402 20.3919C45.3402 22.4009 44.8607 24.2957 44.03 25.9907L34.8832 21.8362C34.7875 20.5821 34.1366 19.4842 33.1589 18.8005L36.3615 8.16849C41.5626 9.82295 45.3402 14.6752 45.3402 20.3919ZM19.5519 20.3919C19.5519 13.3159 25.3363 7.55831 32.4461 7.55831C32.9991 7.55831 33.5404 7.60493 34.0759 7.67261L30.9434 18.0713C30.9014 18.0701 30.8617 18.0585 30.8185 18.0585C28.5598 18.0585 26.7222 19.8901 26.7222 22.1419C26.7222 24.3936 28.5598 26.2254 30.8185 26.2254C32.3375 26.2254 33.65 25.3866 34.3582 24.1591L42.8073 27.9975C40.4564 31.1615 36.6938 33.2255 32.4459 33.2255C25.3363 33.2255 19.5519 27.4679 19.5519 20.3919ZM32.5814 22.1419C32.5814 23.1068 31.7903 23.8919 30.8185 23.8919C29.8467 23.8919 29.0557 23.1068 29.0557 22.1419C29.0557 21.1771 29.8467 20.3919 30.8185 20.3919C31.7903 20.3919 32.5814 21.1771 32.5814 22.1419ZM5.39186 55.0074C4.87506 55.5196 4.03846 55.5185 3.52289 55.0087C3.27433 54.7601 3.13788 54.4324 3.13788 54.0835C3.13788 53.7358 3.27433 53.4079 3.52289 53.1618L5.62743 51.0652L7.48944 52.9191L5.39186 55.0074ZM12.4222 63.1743C11.9054 63.6865 11.0677 63.6877 10.552 63.1755C10.3034 62.927 10.167 62.5993 10.167 62.2503C10.167 61.9027 10.3034 61.5748 10.552 61.3287L12.6579 59.231L13.5388 60.1073L14.5211 61.0849L12.4222 63.1743ZM20.0384 55.5862C20.0371 55.5873 20.036 55.5873 20.0348 55.5885L16.1742 59.4385L15.2933 58.5623L14.311 57.5846L18.168 53.7451C18.168 53.7451 18.168 53.7451 18.168 53.744C18.1693 53.7428 18.1703 53.7428 18.1716 53.7417C18.2591 53.6542 18.3139 53.5492 18.3676 53.4454C18.3828 53.415 18.4119 53.3893 18.4248 53.3579C18.461 53.2681 18.4668 53.1713 18.4808 53.0767C18.4878 53.0229 18.5112 52.9729 18.5112 52.9179C18.5112 52.8397 18.4832 52.764 18.4669 52.6869C18.4529 52.6169 18.4529 52.5456 18.426 52.4781C18.3817 52.3684 18.3058 52.2716 18.2265 52.177C18.2044 52.1513 18.1962 52.1186 18.1717 52.0942C18.1717 52.0942 18.1717 52.0942 18.1705 52.0942C18.1693 52.0931 18.1693 52.0906 18.1682 52.0895L14.6529 48.5895C14.6156 48.5521 14.5678 48.537 14.5258 48.5055C14.464 48.4577 14.4045 48.4134 14.3356 48.3795C14.2692 48.3468 14.2015 48.327 14.1315 48.3082C14.0568 48.2872 13.9845 48.2709 13.9063 48.265C13.8351 48.2604 13.7686 48.2674 13.6975 48.2756C13.6193 48.2849 13.5459 48.2954 13.47 48.3199C13.3965 48.3432 13.3312 48.3793 13.2636 48.4179C13.2204 48.4424 13.1714 48.4506 13.1305 48.4809L9.25136 51.3767L7.2808 49.4143L12.5286 44.1946L22.0674 53.576L20.0384 55.5862ZM34.9545 40.2372C34.9207 40.2325 34.8891 40.2454 34.8554 40.2431C34.7702 40.2384 34.6886 40.2443 34.6034 40.2582C34.5369 40.2699 34.4739 40.2827 34.4109 40.3049C34.3362 40.3306 34.2686 40.3656 34.1996 40.4075C34.1343 40.4472 34.0748 40.4892 34.0177 40.5417C33.9896 40.5661 33.9559 40.5779 33.9302 40.6058L23.6527 51.862L14.1851 42.5506L20.3825 36.3859C20.8387 35.9309 20.8411 35.1923 20.386 34.735C20.1562 34.5052 19.8541 34.392 19.5519 34.3932V34.3921L14.6985 34.4212L14.7592 30.9049L21.5493 30.9633C24.3166 33.7937 28.176 35.5589 32.4461 35.5589C33.4027 35.5589 34.3361 35.4598 35.2449 35.2905C35.3324 35.3605 35.4186 35.4317 35.5284 35.476L40.7996 37.5761L41.1332 39.235L41.5228 41.1717L34.9545 40.2372ZM43.7944 40.6269L43.1096 37.2189L46.2736 34.8564L47.102 35.9554L48.3445 37.605L43.7944 40.6269ZM52.0055 34.4341L50.1726 36.1514L48.1356 33.4471L49.9544 32.0529C50.2939 31.7917 50.7221 31.6854 51.1421 31.7403C51.5644 31.7997 51.9378 32.0203 52.1921 32.3621C52.6659 33.0003 52.5853 33.8905 52.0055 34.4341Z" fill="currentColor"/>
    <path d="M29.7545 40.5651L25.0668 35.8984C24.613 35.4446 23.8755 35.4446 23.4205 35.8984L18.734 40.5651C18.5147 40.7856 18.391 41.0819 18.391 41.3922C18.391 41.7026 18.5135 42.0001 18.734 42.2194L23.4205 46.8861C23.648 47.1124 23.9468 47.2256 24.2443 47.2256C24.5418 47.2256 24.8404 47.1124 25.0668 46.8861L29.7545 42.2194C29.9738 42.0001 30.0987 41.7026 30.0987 41.3922C30.0987 41.0819 29.9749 40.7844 29.7545 40.5651ZM24.2443 44.4128L21.2109 41.3922L24.2443 38.3717L27.2788 41.3922L24.2443 44.4128Z" fill="currentColor"/>
    <path d="M37.5468 11.0923L36.9833 13.358C37.1385 13.3966 40.7844 14.3462 40.7844 18.0586H43.1178C43.1177 13.6461 39.4742 11.5718 37.5468 11.0923Z" fill="currentColor"/>
    <path d="M43.1178 20.3919H40.7844V22.7253H43.1178V20.3919Z" fill="currentColor"/>
  </symbol>

  <symbol id="company1" width="106" height="60">
    <path fill-rule="evenodd" clip-rule="evenodd" d="m38 7 7 6.63H32V45.8h34v-12.3l7 6.62V7H38Zm27.7 25.73L45.81 13.92H65.7v18.8Zm-6.18 8.38H37.38V19.46h1.57v20.18h20.57v1.47ZM41.8 51.8l-.83-1.7h-.68l1.2 2.25v1.3h.61v-1.3l1.2-2.25h-.68l-.82 1.7Zm3.04-1.7h.14l1.35 3.55h-.65l-.28-.83h-1.38l-.29.83h-.64l1.34-3.55H44.84Zm-.65 2.24h1.04l-.52-1.51-.52 1.5Zm4.3-.6-.09-.1c-.09-.11-.16-.23-.2-.34a.95.95 0 0 1 .04-.83.77.77 0 0 1 .32-.31c.14-.07.3-.11.49-.11.18 0 .33.04.46.11a.77.77 0 0 1 .35.98.9.9 0 0 1-.17.26c-.07.07-.15.15-.25.22l-.24.17.7.84a1.4 1.4 0 0 0 .16-.67h.5c0 .17-.01.34-.05.5a1.52 1.52 0 0 1-.26.58l.52.61h-.68l-.2-.24c-.12.09-.24.15-.37.2a1.62 1.62 0 0 1-1.16-.04.97.97 0 0 1-.4-.35.97.97 0 0 1-.05-.9c.06-.11.14-.22.24-.31.1-.09.2-.18.33-.26Zm.28.36-.07.06a.91.91 0 0 0-.2.2.59.59 0 0 0-.03.6c.05.09.11.15.2.2.09.05.2.08.32.08a.9.9 0 0 0 .57-.2l-.79-.94Zm.14-.65.22-.14a.8.8 0 0 0 .22-.2.44.44 0 0 0 .07-.25.35.35 0 0 0-.37-.34.36.36 0 0 0-.34.2.5.5 0 0 0 .01.44 1.44 1.44 0 0 0 .2.3Zm6.22 1.05h-.6a1.1 1.1 0 0 1-.12.39.55.55 0 0 1-.25.24.92.92 0 0 1-.42.08.75.75 0 0 1-.37-.08.7.7 0 0 1-.25-.24 1.2 1.2 0 0 1-.15-.38c-.03-.14-.04-.3-.04-.48v-.3c0-.2.01-.36.05-.5.03-.16.09-.28.16-.38a.7.7 0 0 1 .26-.23c.1-.05.22-.08.36-.08.17 0 .31.03.42.09.1.06.18.14.24.25.05.1.09.24.1.4h.62c-.03-.25-.1-.46-.2-.64-.11-.19-.26-.33-.46-.43-.2-.1-.43-.16-.72-.16-.22 0-.42.04-.6.12-.18.08-.33.19-.46.34-.12.14-.22.32-.29.53-.07.2-.1.43-.1.69v.3c0 .25.03.48.1.69.07.2.16.38.29.53a1.3 1.3 0 0 0 1.04.45c.29 0 .53-.05.73-.15.2-.1.36-.25.47-.43.1-.18.17-.4.2-.62Zm3.4-.53v-.2c0-.26-.04-.5-.11-.71-.07-.21-.17-.4-.3-.55a1.28 1.28 0 0 0-.47-.34 1.47 1.47 0 0 0-.6-.12c-.22 0-.42.04-.6.12-.18.08-.33.2-.46.34-.13.15-.24.34-.3.55-.08.21-.11.45-.11.72v.2c0 .26.03.5.1.72.08.21.18.4.31.54a1.34 1.34 0 0 0 1.06.46 1.3 1.3 0 0 0 1.06-.46c.14-.15.24-.33.3-.54.08-.22.11-.46.11-.73Zm-.62-.2v.2c0 .2-.02.38-.06.53-.03.15-.09.28-.16.39a.73.73 0 0 1-.27.24.81.81 0 0 1-.37.07.8.8 0 0 1-.36-.07.77.77 0 0 1-.27-.24c-.07-.1-.13-.24-.17-.39a2.14 2.14 0 0 1-.06-.53v-.2c0-.2.02-.37.06-.52.04-.15.1-.28.17-.38.07-.1.16-.19.27-.24.1-.05.22-.08.36-.08a.8.8 0 0 1 .36.08c.11.05.2.13.27.24.08.1.14.23.17.38.04.15.06.33.06.52Z"/>
  </symbol>
  <symbol id="company2"  width="106" height="60">
    <path fill-rule="evenodd" clip-rule="evenodd" d="M50.11 5.93h-.13l-.63-.02h-.46a23.94 23.94 0 0 0-1.3.03c-3.64.2-7.2 1.12-10.51 2.68l-.43.21v22.14l1.01-.34a34.33 34.33 0 0 1 10.9-1.91v2.91l-1.06.03h-.08a32.36 32.36 0 0 0-13.65 3.85V7.1a29.73 29.73 0 0 1 7.79-3.16A29.8 29.8 0 0 1 48.89 3h.43a21.1 21.1 0 0 1 5.13.65v2.87a22.62 22.62 0 0 0-3.54-.54h-.07c-.25-.02-.5-.05-.73-.05Zm5.04 2.93a31.47 31.47 0 0 0 9.67-.92 31.78 31.78 0 0 0 7.42-2.89v27.89a29.81 29.81 0 0 1-7.79 3.17c-2.4.61-4.86.93-7.33.94a22.4 22.4 0 0 1-5.57-.66V8.32a22.96 22.96 0 0 0 3.6.54Zm14.2.22-1.01.34a34.26 34.26 0 0 1-13.07 1.86l-.82-.05V34l.7.06a26.88 26.88 0 0 0 8.6-.77 27.76 27.76 0 0 0 5.16-1.87l.44-.2V9.08Z"/>
    <path d="M35.74 45.21a1.5 1.5 0 0 0-1.13-.45c-.22 0-.44.04-.65.12a1.5 1.5 0 0 0-.95 1.47v3.8c0 .26.04.53.15.77.1.2.22.37.38.51.15.13.33.22.52.27.19.05.38.08.57.08a1.6 1.6 0 0 0 1.57-1.6v-.42h-1v.33c.01.12 0 .24-.05.34a.6.6 0 0 1-.14.22.7.7 0 0 1-.41.14.5.5 0 0 1-.47-.2.9.9 0 0 1-.14-.51v-3.54c0-.2.04-.39.13-.56a.5.5 0 0 1 .48-.23.53.53 0 0 1 .44.21.8.8 0 0 1 .17.5v.34h.98v-.39a1.79 1.79 0 0 0-.45-1.2ZM41.63 45.17a1.77 1.77 0 0 0-1.72-.31c-.2.07-.37.17-.52.3-.17.16-.3.34-.39.54-.1.23-.15.48-.14.74v3.63c-.01.26.04.51.14.75.09.2.22.37.39.5.15.15.32.26.52.33a1.74 1.74 0 0 0 1.18 0 1.55 1.55 0 0 0 1.05-1.57v-3.64a1.64 1.64 0 0 0-.52-1.27Zm-.46 4.9a.66.66 0 0 1-.2.53.73.73 0 0 1-.93 0 .65.65 0 0 1-.2-.53v-3.63a.65.65 0 0 1 .2-.53.73.73 0 0 1 .93 0 .65.65 0 0 1 .2.53v3.63ZM49.37 51.7V44.8h-.96l-1.25 3.65h-.02l-1.26-3.65h-.94v6.89h.98v-4.2h.02l.96 2.97h.5l.97-2.96h.01v4.19h.99ZM54.96 45.3c-.15-.18-.34-.3-.56-.38a2.18 2.18 0 0 0-.71-.11h-1.46v6.89h.98V49h.5c.31.02.61-.04.89-.18a1.65 1.65 0 0 0 .76-1.13 4.9 4.9 0 0 0-.04-1.76 1.47 1.47 0 0 0-.36-.64Zm-.5 2.1c-.01.12-.04.24-.1.35-.06.1-.14.2-.25.24a1 1 0 0 1-.46.1h-.45v-2.35h.5c.16 0 .3.02.45.09.1.05.18.14.23.25a1 1 0 0 1 .08.38V47.4ZM59.6 44.81h-.8L57.3 51.7h.98l.29-1.48h1.33l.3 1.48h.97l-1.55-6.89Zm-.9 4.47.49-2.5h.01l.48 2.5h-.98ZM65.95 48.96h-.02l-1.48-4.15h-.94v6.89h.98v-4.14h.02L66 51.7h.92V44.8h-.98v4.15ZM71.95 44.81l-.8 2.74h-.01l-.8-2.74h-1.03l1.35 3.98v2.9h.98v-2.9l1.35-3.98h-1.04ZM33 53.64h.47v1.33h.32v-1.33h.47v-.27H33v.27ZM36.98 53.37l-.62 1.6h.34l.13-.36h.64l.13.36h.35l-.63-1.6h-.34Zm-.05.97.21-.6.22.6h-.43ZM40.9 54.38h.38v.2a.61.61 0 0 1-.38.14.4.4 0 0 1-.34-.15.67.67 0 0 1-.12-.42c0-.35.15-.53.46-.53a.34.34 0 0 1 .36.25l.32-.06c-.07-.31-.3-.47-.68-.47a.8.8 0 0 0-.56.2.78.78 0 0 0-.23.62c0 .22.06.44.2.6a.78.78 0 0 0 .61.24c.25 0 .5-.09.68-.26v-.63h-.7v.27ZM44.92 53.37h-.32v1.6h1.12v-.27h-.8v-1.33ZM48.32 53.37h-.33v1.6h.33v-1.6ZM51.64 54.44l-.66-1.07h-.31v1.6h.3v-1.04l.64 1.04h.32v-1.6h-.3v1.07ZM54.64 54.27h.8V54h-.8v-.36h.85v-.27h-1.18v1.6h1.22v-.27h-.9v-.43ZM61.91 54h-.63v-.63h-.32v1.6h.32v-.7h.63v.7h.32v-1.6h-.32V54ZM64.93 54.27h.8V54h-.8v-.36h.86v-.27h-1.18v1.6h1.21v-.27h-.89v-.43ZM69.02 54.27c.28-.05.42-.2.42-.45a.38.38 0 0 0-.15-.35.9.9 0 0 0-.47-.1h-.68v1.6h.32v-.67h.06c.07 0 .14.01.2.04.05.03.1.07.12.12l.35.5h.38l-.2-.3c-.08-.16-.2-.3-.35-.4Zm-.32-.22h-.24v-.4h.25c.11-.01.23 0 .33.03a.2.2 0 0 1-.01.33.91.91 0 0 1-.33.04ZM72.11 54.27h.8V54h-.8v-.36h.86v-.27h-1.18v1.6H73v-.27h-.89v-.43Z"/>
  </symbol>
  <symbol id="company3" width="106" height="60">
    <path d="m36.4 49.1.05.01.04.02.22.21c-.17.17-.38.3-.61.4-.28.1-.58.15-.87.14-.28 0-.56-.04-.82-.13a1.67 1.67 0 0 1-1.01-.95 1.93 1.93 0 0 1 0-1.49c.1-.21.24-.41.43-.58.18-.16.4-.29.65-.37a2.57 2.57 0 0 1 1.63-.02c.21.08.41.2.58.34l-.18.22a.18.18 0 0 1-.05.04.13.13 0 0 1-.07.02.18.18 0 0 1-.08-.03l-.1-.06-.13-.07a1.55 1.55 0 0 0-.76-.16c-.2 0-.41.03-.6.1a1.29 1.29 0 0 0-.78.73 1.5 1.5 0 0 0-.12.58c0 .2.04.41.11.6a1.24 1.24 0 0 0 .76.72c.18.06.37.1.56.1l.33-.02a1.32 1.32 0 0 0 .72-.31.17.17 0 0 1 .1-.04ZM42.7 48.05c0 .26-.04.5-.14.74-.1.21-.23.4-.41.57-.19.17-.4.3-.65.38-.53.18-1.12.18-1.66 0a1.91 1.91 0 0 1-.64-.38 1.68 1.68 0 0 1-.41-.58c-.2-.47-.2-1 0-1.47.1-.22.23-.41.41-.58.19-.16.4-.28.64-.37a2.61 2.61 0 0 1 1.66 0c.24.09.46.22.65.38a1.7 1.7 0 0 1 .55 1.31Zm-.57 0c0-.2-.03-.4-.1-.59a1.22 1.22 0 0 0-.75-.72 1.92 1.92 0 0 0-1.2 0 1.3 1.3 0 0 0-.47.28 1.2 1.2 0 0 0-.3.44c-.13.39-.13.8 0 1.19a1.2 1.2 0 0 0 .76.72c.39.12.82.12 1.2 0 .18-.07.34-.16.47-.28.13-.13.23-.28.29-.44.07-.2.1-.4.1-.6ZM47 48.67l.06.14.06-.14.07-.13 1.4-2.2c.02-.03.05-.06.07-.06a.37.37 0 0 1 .12-.02h.41v3.58h-.49v-2.86l-1.4 2.23a.2.2 0 0 1-.08.08.25.25 0 0 1-.12.03h-.08a.24.24 0 0 1-.12-.03.2.2 0 0 1-.08-.08l-1.44-2.25v2.88h-.48v-3.58h.42c.03 0 .07 0 .11.02.03.01.06.03.08.06l1.42 2.2.07.13ZM52.24 48.5v1.34h-.54v-3.58h1.21c.23 0 .46.03.68.08.18.04.34.12.48.22.12.1.22.22.28.35.06.15.1.3.09.46a1 1 0 0 1-.4.81c-.14.11-.3.2-.48.24a2.3 2.3 0 0 1-.66.09l-.66-.01Zm0-.39h.66c.15 0 .29-.01.43-.05a.92.92 0 0 0 .3-.16.69.69 0 0 0 .25-.54.6.6 0 0 0-.05-.28.69.69 0 0 0-.2-.25c-.2-.14-.46-.2-.73-.19h-.66v1.47ZM59.57 49.84h-.43a.2.2 0 0 1-.12-.03.22.22 0 0 1-.07-.08l-.37-.87h-1.86l-.39.87a.2.2 0 0 1-.2.12h-.42l1.64-3.59h.57l1.65 3.58Zm-2.7-1.33h1.54l-.65-1.45a2.37 2.37 0 0 1-.12-.34l-.06.19-.06.15-.65 1.45ZM61.93 46.28l.08.06 2.39 2.7V46.26h.48v3.58h-.27c-.04 0-.08 0-.11-.02a.3.3 0 0 1-.09-.07l-2.38-2.7v2.79h-.49v-3.58h.3c.02 0 .06 0 .09.02ZM68.9 48.42v1.42h-.54v-1.42l-1.51-2.16h.49a.2.2 0 0 1 .12.03l.07.08.94 1.4a2.15 2.15 0 0 1 .17.31l.07-.15.1-.16.92-1.4a.38.38 0 0 1 .07-.08.18.18 0 0 1 .12-.04h.5l-1.52 2.17ZM46.73 40.26l.72.06a19.95 19.95 0 0 0 8.95-6.73 16.11 16.11 0 0 0 3.18-9.9l-4.06-3.52c.83 3.73.44 7.58-1.11 11.13a20.96 20.96 0 0 1-7.68 8.96Z"/>
    <path d="m45.28 40.1.11.01c3.7-2.3 6.53-5.51 8.1-9.23a17.33 17.33 0 0 0 .76-11.59l-5.78-5.01a21.53 21.53 0 0 1 2.71 13.3 22.67 22.67 0 0 1-5.9 12.51ZM64.87 27.83a18.04 18.04 0 0 1-6.8 9.89c-1 .76-2.08 1.43-3.22 2.01 2.79-.71 5.36-1.97 7.5-3.68a16.65 16.65 0 0 0 4.86-6.2l-2.34-2.02Z"/>
    <path d="m63.95 27.26-3.34-2.9a16.76 16.76 0 0 1-3.13 9.35 20.38 20.38 0 0 1-8.16 6.67h.02c.75 0 1.5-.04 2.24-.11a20.61 20.61 0 0 0 8.07-5.15 16.95 16.95 0 0 0 4.3-7.86ZM45.77 12.16 41.79 8.7A18.75 18.75 0 0 0 33 14.72 15 15 0 0 0 29.68 24a15.14 15.14 0 0 0 4.03 10.09 19.39 19.39 0 0 0 10.31 5.81 21.84 21.84 0 0 0 6.1-13.62 21.22 21.22 0 0 0-4.35-14.12ZM73.14 26.73c-.01-4.35-2-8.5-5.54-11.58a20.45 20.45 0 0 0-13.32-4.81c-2.31 0-4.6.37-6.76 1.1l24.36 21.15a14.35 14.35 0 0 0 1.26-5.86Z"/>
  </symbol>
  <symbol id="company4" width="106" height="60">
    <path d="M24.15 21.1c-2.4 0-4.35 1.73-4.35 3.86 0 2.14 1.95 3.86 4.34 3.86 2.4 0 4.35-1.72 4.35-3.86 0-2.13-1.95-3.86-4.34-3.86ZM56.2 19.87c-.01-2.96-1.34-5.8-3.7-7.9a13.43 13.43 0 0 0-8.87-3.27c-3.33 0-6.53 1.18-8.88 3.28a10.6 10.6 0 0 0-3.7 7.89v16.32S56.2 33.7 56.2 19.87ZM11 41.55c0 2.06.93 4.03 2.57 5.49a9.35 9.35 0 0 0 6.17 2.28c2.32 0 4.54-.82 6.18-2.28a7.38 7.38 0 0 0 2.57-5.49V30.2S11 31.93 11 41.55Zm8.74 2.03c-.45 0-.9-.11-1.27-.34a2.1 2.1 0 0 1-.84-.91 1.83 1.83 0 0 1-.13-1.18c.09-.4.3-.75.63-1.04a2.4 2.4 0 0 1 1.17-.56c.44-.07.9-.03 1.32.12.42.15.78.41 1.03.75a1.88 1.88 0 0 1-.28 2.57c-.22.2-.47.34-.75.45-.28.1-.57.15-.88.15ZM37.42 42.46h-1.69v1.75h-.88v-4.27h2.78v.71h-1.9v1.1h1.69v.71Zm4.22-.29c0 .42-.07.79-.22 1.1a1.67 1.67 0 0 1-1.59 1 1.7 1.7 0 0 1-1.6-.98 2.51 2.51 0 0 1-.22-1.1V42c0-.43.07-.8.23-1.11a1.7 1.7 0 0 1 1.59-1c.35 0 .67.09.94.26.28.17.5.42.64.74.16.31.23.68.23 1.1v.2Zm-.89-.2c0-.44-.08-.78-.24-1.01a.78.78 0 0 0-.68-.35c-.3 0-.53.11-.69.34-.16.23-.24.57-.24 1.01v.21c0 .44.08.77.24 1.01.16.24.4.36.7.36.29 0 .51-.11.67-.34.16-.23.24-.57.24-1.01v-.21Zm3.74 1.12c0-.17-.06-.3-.17-.38a2.25 2.25 0 0 0-.64-.28c-.3-.1-.54-.2-.72-.3-.48-.26-.73-.61-.73-1.05 0-.24.07-.44.2-.62s.31-.32.56-.43c.24-.1.51-.15.82-.15.3 0 .57.06.81.17.24.1.42.26.56.47.13.2.2.43.2.68h-.88c0-.2-.07-.35-.19-.45a.75.75 0 0 0-.52-.17.8.8 0 0 0-.5.14.43.43 0 0 0-.18.36c0 .14.07.25.21.35.14.09.35.18.62.26.5.15.86.34 1.1.56.22.22.33.5.33.83 0 .37-.13.66-.41.87-.28.21-.66.32-1.13.32a2.2 2.2 0 0 1-.9-.18 1.27 1.27 0 0 1-.83-1.22h.88c0 .47.29.7.85.7.2 0 .37-.04.49-.12.11-.1.17-.21.17-.36Zm4.7-2.44h-1.31v3.56H47v-3.56h-1.3v-.7h3.48v.7Zm3.06 1.7h-1.68v1.15h1.98v.7h-2.86v-4.26h2.85v.71h-1.97v1.02h1.68v.69Zm2.4.3h-.7v1.56h-.89v-4.27h1.59c.5 0 .89.11 1.16.34.28.22.41.54.41.95 0 .3-.06.53-.19.73-.12.2-.31.35-.57.46l.92 1.75v.04h-.94l-.8-1.56Zm-.7-.72h.7c.22 0 .4-.05.51-.16a.6.6 0 0 0 .18-.47c0-.2-.05-.36-.17-.47-.11-.12-.29-.18-.52-.18h-.7v1.28Zm5.32.77v1.5h-.88v-4.26h1.66c.32 0 .6.06.85.18.24.11.43.28.56.5.13.21.2.46.2.73 0 .42-.15.75-.44 1-.28.23-.68.35-1.18.35h-.77Zm0-.7h.78c.23 0 .41-.06.53-.17.13-.11.19-.27.19-.47a.7.7 0 0 0-.19-.5.69.69 0 0 0-.5-.2h-.81v1.33Zm5.56.36h-1.69v1.14h1.98v.7h-2.86v-4.26h2.85v.71h-1.97v1.02h1.69v.69Zm4.08-1.7H67.6v3.55h-.88v-3.56h-1.29v-.7h3.48v.7Zm3.07 1.7h-1.7v1.14h1.99v.7H69.4v-4.26h2.85v.71H70.3v1.02h1.69v.69Zm2.38.29h-.7v1.56h-.88v-4.27h1.59c.5 0 .9.11 1.17.34.27.22.4.54.4.95 0 .3-.06.53-.18.73-.13.2-.32.35-.58.46l.93 1.75v.04h-.95l-.8-1.56Zm-.7-.72h.71c.22 0 .4-.05.52-.16a.6.6 0 0 0 .18-.47c0-.2-.06-.36-.18-.47-.1-.12-.28-.18-.52-.18h-.7v1.28Zm5.17 1.16c0-.17-.06-.3-.18-.38a2.25 2.25 0 0 0-.63-.28c-.3-.1-.55-.2-.72-.3-.49-.26-.73-.61-.73-1.05 0-.24.06-.44.2-.62.12-.18.31-.32.55-.43.25-.1.52-.15.82-.15.3 0 .58.06.82.17.24.1.42.26.55.47.13.2.2.43.2.68h-.88c0-.2-.06-.35-.18-.45a.75.75 0 0 0-.52-.17.8.8 0 0 0-.5.14.43.43 0 0 0-.18.36c0 .14.07.25.2.35.15.09.35.18.63.26.5.15.86.34 1.09.56.23.22.34.5.34.83 0 .37-.14.66-.42.87-.28.21-.65.32-1.13.32a2.2 2.2 0 0 1-.9-.18 1.27 1.27 0 0 1-.83-1.22h.89c0 .47.28.7.84.7.21 0 .38-.04.5-.12.11-.1.17-.21.17-.36Z"/>
  </symbol>
  <symbol id="company5" width="106" height="60">
    <path d="M26.76 44.74c.24.27.37.62.36.97.02.23-.03.46-.13.68-.1.21-.24.4-.43.56-.48.32-1.06.48-1.66.45H22v-6.2h2.84a2.6 2.6 0 0 1 1.58.42c.18.14.33.32.42.52.1.2.14.42.13.64.02.34-.1.67-.33.94-.22.25-.52.42-.86.49.38.06.73.25.98.53Zm-3.4-.94h1.2c.28.02.56-.05.78-.2.1-.08.16-.17.2-.28.05-.1.07-.22.06-.33a.7.7 0 0 0-.05-.33.76.76 0 0 0-.2-.27 1.25 1.25 0 0 0-.8-.21h-1.2v1.62Zm2.1 2.38c.1-.08.17-.18.22-.29.05-.1.07-.23.07-.34a.72.72 0 0 0-.07-.35.79.79 0 0 0-.23-.29 1.34 1.34 0 0 0-.82-.22h-1.28v1.7h1.3c.28.02.57-.06.8-.22ZM32.57 47.4 31 44.98h-.6v2.42h-1.36v-6.2h2.58a2.7 2.7 0 0 1 1.8.53 1.86 1.86 0 0 1 .2 2.56c-.33.34-.77.56-1.24.63l1.68 2.48h-1.48Zm-2.18-3.27h1.12c.77 0 1.16-.3 1.16-.93a.85.85 0 0 0-.07-.38.92.92 0 0 0-.22-.32 1.28 1.28 0 0 0-.87-.25h-1.13l.01 1.88ZM40.01 46.15H37.3l-.48 1.25h-1.43l2.5-6.13h1.54l2.48 6.13h-1.43L40 46.15Zm-.36-.94-1-2.61-.99 2.61h1.99ZM49.32 47.4h-1.35l-3.03-4.21v4.2H43.6v-6.18h1.35l3.03 4.23v-4.23h1.35v6.19ZM57.03 45.91c-.28.47-.7.85-1.22 1.1-.59.27-1.24.4-1.9.39h-2.4v-6.2h2.4c.66-.01 1.31.12 1.9.39.52.24.94.61 1.22 1.08a3.35 3.35 0 0 1 0 3.24Zm-1.54-.14c.38-.41.6-.94.6-1.48s-.22-1.07-.6-1.48a2.49 2.49 0 0 0-1.7-.52h-.93v4h.94c.61.04 1.22-.15 1.69-.52ZM40.86 6.77s17.43 6.02 17.06 14.75v14.75S40.5 30.24 40.86 21.52V6.77ZM73.46 32.82a25.3 25.3 0 0 1 11.08-3.74v-4.62a22.4 22.4 0 0 0-11.08 8.36Z"/>
    <path d="M71.48 34.2a23.1 23.1 0 0 1 13.06-10.7V10.17S59.7 18.78 60.23 31.2V52.2s1.1-.38 2.85-1.1c0-.68 0-1.35.08-2.03a21.28 21.28 0 0 1 8.32-14.86Z"/>
    <path d="M69.12 42.01c.13-1.45.42-2.9.87-4.3a19.43 19.43 0 0 0-5.26 12.7c1.41-.63 3.05-1.4 4.78-2.31-.44-2-.57-4.05-.39-6.09ZM70.1 42.09c-.16 1.84-.05 3.7.31 5.5 6.79-3.71 14.41-9.45 14.12-16.4v-.6a23.2 23.2 0 0 0-12.91 5.52 19.26 19.26 0 0 0-1.51 5.98Z"/>
  </symbol>
  <symbol id="company6" width="106" height="60">
    <path d="M53.425 27.4082C52.9819 26.8184 52.7699 26.1213 52.8203 25.4196V22.5364C52.8203 21.6526 53.0207 20.9809 53.4216 20.5214C53.8224 20.0619 54.511 19.8331 55.4871 19.8351C56.4044 19.8351 57.0555 20.0306 57.4405 20.4217C57.8605 20.9207 58.0648 21.5309 58.018 22.1463V22.8239H56.3772V22.1375C56.383 21.9129 56.3671 21.6882 56.3296 21.4659C56.306 21.3138 56.2234 21.1732 56.0952 21.067C55.9267 20.9525 55.7145 20.897 55.5007 20.9115C55.2759 20.897 55.0529 20.9556 54.8756 21.0758C54.7327 21.1935 54.6374 21.3477 54.6038 21.5157C54.5567 21.7511 54.5351 21.9897 54.5393 22.2285V25.7276C54.5134 26.0652 54.5858 26.403 54.7499 26.7102C54.8315 26.8141 54.9448 26.8965 55.0774 26.9483C55.2099 27.0001 55.3564 27.0192 55.5007 27.0035C55.7109 27.0184 55.9195 26.9615 56.0816 26.8451C56.2153 26.7305 56.3013 26.581 56.3262 26.4198C56.3645 26.1877 56.3816 25.9533 56.3772 25.7188V25.009H58.018V25.6572C58.0641 26.2988 57.8648 26.9356 57.4507 27.4698C57.0736 27.8981 56.4315 28.1122 55.4871 28.1122C54.5427 28.1122 53.8292 27.8834 53.425 27.4082Z"/>
    <path d="M60.2569 27.4376C59.8424 26.9888 59.6352 26.3347 59.6352 25.4695V22.4367C59.6352 21.5803 59.8424 20.9321 60.2569 20.4921C60.6713 20.0521 61.3644 19.8331 62.3359 19.8351C63.3007 19.8351 63.9904 20.0541 64.4048 20.4921C64.8193 20.9321 65.0299 21.5803 65.0299 22.4367V25.4695C65.0299 26.3259 64.8193 26.9829 64.398 27.4346C63.9768 27.8863 63.2906 28.1122 62.3359 28.1122C61.3813 28.1122 60.6747 27.8834 60.2569 27.4376ZM63.1003 26.7102C63.2487 26.4291 63.3163 26.1212 63.2974 25.8127V22.0994C63.3164 21.7969 63.2499 21.4949 63.1037 21.2195C63.0205 21.1134 62.9043 21.0296 62.7686 20.9777C62.6328 20.9259 62.4829 20.908 62.3359 20.9262C62.1885 20.9085 62.0383 20.9265 61.9021 20.9783C61.7659 21.0301 61.6491 21.1136 61.5648 21.2195C61.4154 21.4941 61.3477 21.7965 61.3678 22.0994V25.8303C61.3471 26.1389 61.4148 26.4471 61.5648 26.7278C61.6604 26.8224 61.7785 26.8982 61.9109 26.9502C62.0433 27.0021 62.1871 27.029 62.3326 27.029C62.478 27.029 62.6218 27.0021 62.7542 26.9502C62.8866 26.8982 63.0047 26.8224 63.1003 26.7278V26.7102Z"/>
    <path d="M67.0035 19.9236H68.7701L70.0984 25.5192L71.4573 19.9236H73.1763L73.3496 28.0003H72.079L71.9431 22.3871L70.6318 28.0003H69.6126L68.2537 22.3665L68.128 28.0003H66.8439L67.0035 19.9236Z"/>
    <path d="M75.3302 19.9236H78.0819C79.6673 19.9236 80.4599 20.688 80.4599 22.217C80.4599 23.6814 79.6254 24.4126 77.9562 24.4106H77.0186V28.0003H75.32L75.3302 19.9236ZM77.6811 23.3754C77.8489 23.3938 78.0193 23.3805 78.1806 23.3364C78.3419 23.2924 78.4902 23.2186 78.6153 23.1203C78.8101 22.8475 78.896 22.5271 78.8599 22.2082C78.8688 21.9618 78.8414 21.7154 78.7783 21.475C78.7541 21.3947 78.7116 21.3194 78.6533 21.2534C78.5949 21.1874 78.522 21.1322 78.4386 21.0908C78.2028 20.9932 77.9422 20.9488 77.6811 20.9618H77.022V23.3754H77.6811Z"/>
    <path d="M82.9094 19.9236H84.7337L86.6055 28.0003H85.0225L84.6522 26.138H83.0249L82.6444 28.0003H81.0376L82.9094 19.9236ZM84.4687 25.2025L83.8334 21.8123L83.1982 25.2025H84.4687Z"/>
    <path d="M88.1173 19.9236H89.3063L91.5825 24.5309V19.9236H92.9923V28.0003H91.861L89.5713 23.1906V28.0003H88.1139L88.1173 19.9236Z"/>
    <path d="M96.2945 24.9208L94.4022 19.9349H95.9955L97.1506 23.1376L98.2343 19.9349H99.7936L97.9251 24.9208V28.0003H96.2945V24.9208Z"/>
    <path d="M56.0477 31.5316V31.954H54.6617V35.2359H54.0807V31.954H52.6879V31.5316H56.0477Z"/>
    <path d="M60.3927 35.2362H59.9442C59.8987 35.2386 59.8538 35.2261 59.8185 35.201C59.7846 35.1795 59.7587 35.15 59.7438 35.116L59.3429 34.2361H57.4201L57.0192 35.116C57.0078 35.1528 56.9869 35.1868 56.958 35.2157C56.9225 35.2402 56.8778 35.2527 56.8324 35.2509H56.3839L58.0825 31.5468H58.6737L60.3927 35.2362ZM57.5797 33.8607H59.1833L58.5038 32.3533C58.4537 32.2393 58.4117 32.1227 58.3781 32.0043C58.3543 32.0747 58.3339 32.1421 58.3136 32.2008L58.2524 32.3562L57.5797 33.8607Z"/>
    <path d="M63.3211 34.8724C63.4275 34.8772 63.5341 34.8772 63.6404 34.8724C63.7323 34.8642 63.8232 34.8495 63.9122 34.8284C63.9954 34.8107 64.0772 34.7882 64.1568 34.7609C64.2316 34.7345 64.3063 34.7022 64.3844 34.67V33.8369H63.705C63.6882 33.8378 63.6714 33.8356 63.6556 33.8305C63.6398 33.8255 63.6254 33.8177 63.6133 33.8076C63.6021 33.7993 63.5933 33.7889 63.5874 33.7772C63.5815 33.7655 63.5787 33.7529 63.5793 33.7401V33.4556H64.8974V34.8753C64.7898 34.9417 64.6762 35.0006 64.5577 35.0513C64.4366 35.1029 64.3104 35.1451 64.1806 35.1774C64.0417 35.2127 63.8996 35.2382 63.7559 35.2537C63.5912 35.2695 63.4257 35.2773 63.26 35.2771C62.967 35.2793 62.6763 35.2325 62.4038 35.1393C62.1495 35.051 61.9184 34.9193 61.7244 34.7521C61.5353 34.5832 61.3864 34.3839 61.2862 34.1655C61.1791 33.9199 61.1261 33.6593 61.1299 33.397C61.1263 33.133 61.1781 32.8706 61.2828 32.6226C61.3805 32.4031 61.5297 32.2033 61.721 32.036C61.9149 31.8693 62.1461 31.7386 62.4005 31.6517C62.6914 31.5572 63.0001 31.5105 63.3109 31.5138C63.4691 31.5137 63.627 31.5245 63.7831 31.5461C63.9212 31.5655 64.0567 31.597 64.1874 31.64C64.3062 31.6785 64.4201 31.7277 64.5271 31.7866C64.6312 31.8445 64.7301 31.9092 64.8227 31.9802L64.6596 32.209C64.6468 32.2299 64.6278 32.2475 64.6045 32.2598C64.5812 32.2722 64.5545 32.279 64.5271 32.2794C64.4895 32.2784 64.453 32.2682 64.4218 32.2501C64.3708 32.2266 64.3165 32.1973 64.2553 32.1621C64.1831 32.123 64.1069 32.0896 64.0277 32.0624C63.9265 32.0273 63.8219 31.9998 63.7152 31.9802C63.5729 31.9576 63.4284 31.9468 63.2837 31.948C63.0596 31.9458 62.8371 31.9807 62.6281 32.0506C62.439 32.1161 62.2686 32.2162 62.1287 32.3439C61.9879 32.4771 61.8803 32.6339 61.8127 32.8045C61.661 33.2056 61.661 33.6381 61.8127 34.0393C61.8871 34.2135 62.0028 34.3724 62.1525 34.5057C62.2918 34.6328 62.4609 34.7328 62.6485 34.799C62.8645 34.8631 63.0934 34.888 63.3211 34.8724Z"/>
    <path d="M68.7362 34.8136H70.5911V35.2359H68.1689V31.5316H68.7498L68.7362 34.8136Z"/>
    <path d="M72.5208 35.2359H71.9398V31.5316H72.5208V35.2359Z"/>
    <path d="M74.6814 31.5492C74.7159 31.5662 74.746 31.5892 74.7697 31.6167L77.253 34.409C77.2497 34.3651 77.2497 34.321 77.253 34.277C77.253 34.236 77.253 34.1949 77.253 34.1568V31.517H77.7592V35.2362H77.4671C77.4238 35.2392 77.3804 35.2321 77.3414 35.2156C77.3061 35.1972 77.275 35.1733 77.2496 35.1452L74.7697 32.3558C74.7697 32.3998 74.7697 32.4409 74.7697 32.482C74.7697 32.523 74.7697 32.5612 74.7697 32.5964V35.2362H74.2839V31.5316H74.5863C74.6191 31.5317 74.6515 31.5377 74.6814 31.5492Z"/>
    <path d="M82.0364 31.5316V31.9393H79.9777V33.1624H81.6457V33.5554H79.9777V34.8195H82.0364V35.2272H79.3798V31.5316H82.0364Z"/>
    <path d="M21.1617 8.65551L46.9568 14.9788V37.1368L21.1617 30.8164V8.65551ZM19.5073 6.76672V31.8928L48.6079 39.0285V13.9054L19.5073 6.76672Z"/>
    <path d="M35.1039 50.6922L6 43.5505V18.4271L35.1039 25.5659V50.6922Z"/>
    <path d="M19.9897 8.37099L45.4484 14.615L34.6215 23.9649L9.1594 17.7179L19.9897 8.37099ZM19.5073 6.76672L6 18.4277L35.1039 25.5662L48.6078 13.9053L19.5073 6.76672Z"/>
    <path d="M36.7414 49.2788L48.6078 39.0315L36.7414 36.1193V49.2788Z"/>
  </symbol>

  <symbol id="cross" width="11" height="11" viewBox="0 0 11 11">
    <path d="M11 1.10786L9.89214 0L5.5 4.39214L1.10786 0L0 1.10786L4.39214 5.5L0 9.89214L1.10786 11L5.5 6.60786L9.89214 11L11 9.89214L6.60786 5.5L11 1.10786Z"/>
  </symbol>
  <symbol id="modal-person" width="18" height="18">
    <path d="M9 9a3 3 0 1 0 0-6 3 3 0 0 0 0 6Zm0 1.5c-2 0-6 1-6 3v.75c0 .41.34.75.75.75h10.5c.41 0 .75-.34.75-.75v-.75c0-2-4-3-6-3Z"/>
  </symbol>
  <symbol id="modal-phone" width="18" height="18">
    <path d="m14 11.12-1.84-.2c-.44-.06-.88.1-1.19.4l-1.33 1.34a10.89 10.89 0 0 1-4.77-4.77l1.34-1.34c.31-.31.46-.75.41-1.19l-.2-1.82a1.45 1.45 0 0 0-1.45-1.28H3.72c-.82 0-1.5.68-1.45 1.5a12.3 12.3 0 0 0 11.5 11.5c.82.05 1.5-.63 1.5-1.45v-1.25c0-.74-.54-1.35-1.27-1.44Z"/>
  </symbol>
  <symbol id="modal-email" width="18" height="18">
    <path d="M15 3H3C2.175 3 1.5075 3.675 1.5075 4.5L1.5 13.5C1.5 14.325 2.175 15 3 15H15C15.825 15 16.5 14.325 16.5 13.5V4.5C16.5 3.675 15.825 3 15 3ZM14.7 6.1875L9.3975 9.5025C9.1575 9.6525 8.8425 9.6525 8.6025 9.5025L3.3 6.1875C3.1125 6.0675 3 5.865 3 5.6475C3 5.145 3.5475 4.845 3.975 5.1075L9 8.25L14.025 5.1075C14.4525 4.845 15 5.145 15 5.6475C15 5.865 14.8875 6.0675 14.7 6.1875Z"/>
  </symbol>
  <symbol id="checkbox" width="16" height="15">
    <path d="M14.22 1.67v11.66H1.78V1.67h12.44Zm0-1.67H1.78C.8 0 0 .75 0 1.67v11.66C0 14.25.8 15 1.78 15h12.44c.98 0 1.78-.75 1.78-1.67V1.67C16 .75 15.2 0 14.22 0Z" fill="var(--cb-off, transparent)"/>
    <rect width="16" height="15" rx="2" fill="var(--cb-on)"/>
    <path d="m3.96 7.75-.07-.06-.07.06-.89.84-.08.07.08.08 3.5 3.33.07.07.06-.07 7.5-7.16.08-.07-.07-.07-.88-.84-.07-.07-.07.07-6.55 6.24-2.54-2.42Z" fill="currentColor" stroke="currentColor" stroke-width=".2"/>
  </symbol>

  <symbol id="send" width="24" height="24">
    <path d="M24 0 0 13.5l7.67 2.84L19.5 5.25l-9 12.14V24l4.3-5.02L20.25 21 24 0Z"/>
  </symbol>
</svg>
